<?xml version="1.0" standalone="no"?>
<!DOCTYPE svg PUBLIC "-//W3C//DTD SVG 20010904//EN"
 "http://www.w3.org/TR/2001/REC-SVG-20010904/DTD/svg10.dtd">
<svg version="1.0" xmlns="http://www.w3.org/2000/svg"
 width="791.000000pt" height="1280.000000pt" viewBox="0 0 791.000000 1280.000000"
 preserveAspectRatio="xMidYMid meet">
<metadata>
Created by potrace 1.15, written by Peter Selinger 2001-2017
</metadata>
<g transform="translate(0.000000,1280.000000) scale(0.100000,-0.100000)"
fill="#2196f3" stroke="none">
<path d="M6040 12794 c-19 -2 -91 -9 -160 -14 -245 -21 -529 -65 -1240 -190
-399 -70 -593 -100 -654 -100 -91 0 -475 51 -1126 149 -556 84 -788 109 -1075
118 -621 18 -1014 -108 -1310 -418 -344 -360 -490 -941 -472 -1874 21 -1042
173 -1862 619 -3340 l90 -300 -11 -205 c-43 -764 -28 -1853 40 -2845 108
-1585 337 -3026 550 -3473 37 -77 67 -115 184 -238 70 -73 167 -82 258 -24 56
36 102 96 166 220 317 616 732 2551 901 4200 32 314 89 451 257 623 371 379
1029 373 1387 -13 70 -77 106 -129 155 -227 57 -114 79 -196 91 -340 120
-1375 535 -2972 1031 -3963 188 -374 311 -513 458 -514 140 -1 221 106 316
420 232 762 480 2366 595 3849 58 739 82 1376 79 2060 l-2 490 55 115 c228
475 421 1043 527 1550 123 593 169 1196 158 2084 -5 445 -16 597 -58 836 -149
854 -590 1292 -1369 1360 -106 9 -358 11 -440 4z"/>
</g>
</svg>
